# xmcd
#
# Track frame offsets:
#	150
#	965
#	22737
#	42992
#	63842
#	82922
#	83942
#	84962
#	85985
#	86782
#	107977
#	126215
#	146085
#	164802
#	187662
#	201260
#	217877
#	238347
#	239362
#	240165
#	256332
#	274357
#	290432
#	302840
#
# Disc length: 4216 seconds
#
# Revision: 4
# Processed by: cddbd v1.5.2PL0 Copyright (c) Steve Scherf et al.
# Submitted via: audiograbber 1.83.01
#
DISCID=41107618
DTITLE=Various Artist - T198
DYEAR=1993
DGENRE=Country
TTITLE0=Empty Track - Empty Track
TTITLE1=Brian Adams,Rod Stewart and Sting - All For Love
TTITLE2=Diana Ross - The Best Years Of My Life
TTITLE3=Luther Vandross - Never Let Me Go
TTITLE4=George Benson - Lovin' On Borrowed Time
TTITLE5=Empty Track - Empty Track
TTITLE6=Empty Track - Empty Track
TTITLE7=Empty Track - Empty Track
TTITLE8=Empty Track - Empty Track
TTITLE9=Stone Temple Pilots - Creep (New Radio Version)
TTITLE10=Kate Bush - Rubberband Girl (Edit)
TTITLE11=Jodeci - Cry For You
TTITLE12=Lisette Melendez - Goody Goody (Radio Edit)
TTITLE13=U2 - Stay (Faraway So Close)
TTITLE14=INXS - Time
TTITLE15=US3 f/ Rahsaan and Gerrard Presencer - Cantaloop (Radio Edit)
TTITLE16=Robin S - What I Do Best (Lp Edit)
TTITLE17=Empty Track - Empty Track
TTITLE18=Empty Track - Empty Track
TTITLE19=Brooks and Dunn - Rock My World (Little Country Girl)
TTITLE20=George Strait - I'd Like To Have That One Back
TTITLE21=Suzy Bogguss - Hey Cinderella
TTITLE22=Turner Nichols - She Loves To Here Me Rock
TTITLE23=John Brannen - Lonesome Side Of Midnight
EXTD=
EXTT0=
EXTT1=
EXTT2=
EXTT3=
EXTT4=
EXTT5=
EXTT6=
EXTT7=
EXTT8=
EXTT9=
EXTT10=
EXTT11=
EXTT12=
EXTT13=
EXTT14=
EXTT15=
EXTT16=
EXTT17=
EXTT18=
EXTT19=
EXTT20=
EXTT21=
EXTT22=
EXTT23=
PLAYORDER=
